<svg width="217" height="1065" viewBox="0 0 217 1065" fill="none" xmlns="http://www.w3.org/2000/svg">
<path d="M95.961 1059.59C95.961 1056.64 93.5732 1054.26 90.6277 1054.26C87.6822 1054.26 85.2943 1056.64 85.2943 1059.59C85.2943 1062.53 87.6822 1064.92 90.6277 1064.92C93.5732 1064.92 95.961 1062.53 95.961 1059.59ZM90.6277 938.938L89.9206 938.23L89.6277 938.523L89.6277 938.938L90.6277 938.938ZM138.614 890.951L139.321 891.658L139.614 891.366L139.614 890.951L138.614 890.951ZM138.614 666.101L139.614 666.101L139.614 665.687L139.321 665.394L138.614 666.101ZM90.6276 618.115L89.6276 618.115L89.6276 618.529L89.9205 618.822L90.6276 618.115ZM90.6276 449.477L89.9205 448.77L89.6276 449.063L89.6276 449.477L90.6276 449.477ZM186.6 353.505L187.307 354.212L187.6 353.919L187.6 353.505L186.6 353.505ZM186.6 179.383L187.6 179.383L187.6 178.968L187.307 178.675L186.6 179.383ZM119.268 106.717C119.268 103.772 116.88 101.384 113.935 101.384C110.989 101.384 108.602 103.772 108.602 106.717C108.602 109.663 110.989 112.051 113.935 112.051C116.88 112.051 119.268 109.663 119.268 106.717ZM91.6277 1059.59L91.6277 938.938L89.6277 938.938L89.6277 1059.59L91.6277 1059.59ZM91.3348 939.645L139.321 891.658L137.907 890.244L89.9206 938.23L91.3348 939.645ZM139.614 890.951L139.614 666.101L137.614 666.101L137.614 890.951L139.614 890.951ZM139.321 665.394L91.3348 617.408L89.9205 618.822L137.907 666.808L139.321 665.394ZM91.6276 618.115L91.6276 449.477L89.6276 449.477L89.6276 618.115L91.6276 618.115ZM91.3347 450.184L187.307 354.212L185.893 352.797L89.9205 448.77L91.3347 450.184ZM187.6 353.505L187.6 179.383L185.6 179.383L185.6 353.505L187.6 353.505ZM187.307 178.675L114.642 106.01L113.228 107.425L185.893 180.09L187.307 178.675Z" fill="#FF9B94"/>
<path d="M138.261 976.316C138.261 973.37 135.873 970.982 132.927 970.982C129.982 970.982 127.594 973.37 127.594 976.316C127.594 979.261 129.982 981.649 132.927 981.649C135.873 981.649 138.261 979.261 138.261 976.316ZM132.927 927.572L133.927 927.572L133.927 927.157L133.634 926.865L132.927 927.572ZM93.136 887.78L92.136 887.78L92.136 888.195L92.4288 888.487L93.136 887.78ZM93.1359 713.694L92.4288 712.987L92.1359 713.28L92.1359 713.694L93.1359 713.694ZM161.278 645.552L161.985 646.259L162.278 645.966L162.278 645.552L161.278 645.552ZM161.278 242.169L160.571 241.462L160.278 241.755L160.278 242.169L161.278 242.169ZM216.102 192.679C216.102 189.733 213.714 187.345 210.768 187.345C207.823 187.345 205.435 189.733 205.435 192.679C205.435 195.624 207.823 198.012 210.768 198.012C213.714 198.012 216.102 195.624 216.102 192.679ZM133.927 976.316L133.927 927.572L131.927 927.572L131.927 976.316L133.927 976.316ZM133.634 926.865L93.8431 887.073L92.4288 888.487L132.22 928.279L133.634 926.865ZM94.136 887.78L94.1359 713.694L92.1359 713.694L92.136 887.78L94.136 887.78ZM93.843 714.401L161.985 646.259L160.571 644.845L92.4288 712.987L93.843 714.401ZM162.278 645.552L162.278 242.169L160.278 242.169L160.278 645.552L162.278 645.552ZM161.985 242.876L211.476 193.386L210.061 191.972L160.571 241.462L161.985 242.876Z" fill="#FF9B94"/>
<path d="M185.015 821.13C185.015 818.185 182.628 815.797 179.682 815.797C176.737 815.797 174.349 818.185 174.349 821.13C174.349 824.076 176.737 826.464 179.682 826.464C182.628 826.464 185.015 824.076 185.015 821.13ZM57.8217 699.27L56.8217 699.27L56.8217 699.684L57.1146 699.977L57.8217 699.27ZM57.8217 464.999L57.1146 464.292L56.8217 464.585L56.8217 464.999L57.8217 464.999ZM97.8614 424.96L98.5685 425.667L98.8614 425.374L98.8614 424.96L97.8614 424.96ZM97.8614 228.242L98.8614 228.242L98.8614 227.828L98.5685 227.535L97.8614 228.242ZM-8.32754e-05 130.381L-0.707191 129.673L-1.4143 130.381L-0.707191 131.088L-8.32754e-05 130.381ZM130.302 5.4115C130.302 2.46595 127.914 0.0781295 124.969 0.0781298C122.023 0.07813 119.636 2.46595 119.636 5.4115C119.636 8.357 122.023 10.7448 124.969 10.7448C127.914 10.7448 130.302 8.357 130.302 5.4115ZM180.389 820.423L58.5288 698.563L57.1146 699.977L178.975 821.837L180.389 820.423ZM58.8217 699.27L58.8217 464.999L56.8217 464.999L56.8217 699.27L58.8217 699.27ZM58.5288 465.706L98.5685 425.667L97.1543 424.253L57.1146 464.292L58.5288 465.706ZM98.8614 424.96L98.8614 228.242L96.8614 228.242L96.8614 424.96L98.8614 424.96ZM98.5685 227.535L0.707024 129.673L-0.707191 131.088L97.1543 228.949L98.5685 227.535ZM0.707024 131.088L125.676 6.1186L124.262 4.70435L-0.707191 129.673L0.707024 131.088Z" fill="#FF9B94"/>
<path d="M170.093 930.556C170.093 927.61 167.706 925.223 164.76 925.223C161.815 925.223 159.427 927.61 159.427 930.556C159.427 933.501 161.815 935.889 164.76 935.889C167.706 935.889 170.093 933.501 170.093 930.556ZM164.76 725.631L164.053 724.924L163.76 725.217L163.76 725.631L164.76 725.631ZM185.153 705.239L185.86 705.946L186.153 705.653L186.153 705.239L185.153 705.239ZM185.153 482.905L186.153 482.905L186.153 482.491L185.86 482.198L185.153 482.905ZM62.0491 359.802L61.0491 359.802L61.0491 360.216L61.342 360.509L62.0491 359.802ZM62.0491 200.388L61.342 199.681L61.0491 199.974L61.0491 200.388L62.0491 200.388ZM190.486 77.2844C190.486 74.3389 188.098 71.951 185.153 71.951C182.207 71.9511 179.82 74.3389 179.82 77.2844C179.82 80.2299 182.207 82.6177 185.153 82.6177C188.098 82.6177 190.486 80.2299 190.486 77.2844ZM165.76 930.556L165.76 725.631L163.76 725.631L163.76 930.556L165.76 930.556ZM165.467 726.339L185.86 705.946L184.446 704.531L164.053 724.924L165.467 726.339ZM186.153 705.239L186.153 482.905L184.153 482.905L184.153 705.239L186.153 705.239ZM185.86 482.198L62.7562 359.094L61.342 360.509L184.446 483.612L185.86 482.198ZM63.0491 359.802L63.0491 200.388L61.0491 200.388L61.0491 359.802L63.0491 359.802ZM62.7562 201.095L185.86 77.9915L184.446 76.5773L61.342 199.681L62.7562 201.095Z" fill="#FF9B94"/>
</svg>
