<svg width="217" height="1065" viewBox="0 0 217 1065" fill="none" xmlns="http://www.w3.org/2000/svg">
<path d="M121.039 5.4115C121.039 8.35702 123.427 10.7448 126.372 10.7448C129.318 10.7448 131.706 8.35702 131.706 5.4115C131.706 2.46598 129.318 0.0781655 126.372 0.0781655C123.427 0.0781655 121.039 2.46598 121.039 5.4115ZM126.372 126.063L127.079 126.77L127.372 126.477V126.063H126.372ZM78.386 174.049L77.6789 173.342L77.386 173.635V174.049H78.386ZM78.386 398.899H77.386V399.314L77.6789 399.606L78.386 398.899ZM126.372 446.886H127.372V446.471L127.079 446.178L126.372 446.886ZM126.372 615.523L127.079 616.23L127.372 615.938V615.523H126.372ZM30.3998 711.496L29.6927 710.789L29.3998 711.082V711.496H30.3998ZM30.3998 885.618H29.3998V886.032L29.6927 886.325L30.3998 885.618ZM97.7316 958.283C97.7316 961.228 100.119 963.616 103.065 963.616C106.01 963.616 108.398 961.228 108.398 958.283C108.398 955.337 106.01 952.95 103.065 952.95C100.119 952.95 97.7316 955.337 97.7316 958.283ZM125.372 5.4115V126.063H127.372V5.4115H125.372ZM125.665 125.356L77.6789 173.342L79.0931 174.756L127.079 126.77L125.665 125.356ZM77.386 174.049V398.899H79.386V174.049H77.386ZM77.6789 399.606L125.665 447.593L127.079 446.178L79.0931 398.192L77.6789 399.606ZM125.372 446.886V615.523H127.372V446.886H125.372ZM125.665 614.816L29.6927 710.789L31.1069 712.203L127.079 616.23L125.665 614.816ZM29.3998 711.496V885.618H31.3998V711.496H29.3998ZM29.6927 886.325L102.358 958.99L103.772 957.576L31.1069 884.911L29.6927 886.325Z" fill="#FF9B94"/>
<path d="M78.7394 88.6844C78.7394 91.63 81.1273 94.0178 84.0728 94.0178C87.0183 94.0178 89.4061 91.63 89.4061 88.6844C89.4061 85.7389 87.0183 83.3511 84.0728 83.3511C81.1273 83.3511 78.7394 85.7389 78.7394 88.6844ZM84.0728 137.429H83.0728V137.843L83.3657 138.136L84.0728 137.429ZM123.864 177.22H124.864V176.806L124.571 176.513L123.864 177.22ZM123.864 351.306L124.571 352.013L124.864 351.72V351.306H123.864ZM55.7217 419.448L55.0146 418.741L54.7217 419.034V419.448H55.7217ZM55.7217 822.831L56.4288 823.538L56.7217 823.246V822.831H55.7217ZM0.898112 872.322C0.898112 875.267 3.28593 877.655 6.23145 877.655C9.17696 877.655 11.5648 875.267 11.5648 872.322C11.5648 869.376 9.17696 866.988 6.23145 866.988C3.28593 866.988 0.898112 869.376 0.898112 872.322ZM83.0728 88.6844V137.429H85.0728V88.6844H83.0728ZM83.3657 138.136L123.157 177.927L124.571 176.513L84.7799 136.722L83.3657 138.136ZM122.864 177.22V351.306H124.864V177.22H122.864ZM123.157 350.599L55.0146 418.741L56.4288 420.156L124.571 352.013L123.157 350.599ZM54.7217 419.448V822.831H56.7217V419.448H54.7217ZM55.0146 822.124L5.52434 871.615L6.93855 873.029L56.4288 823.538L55.0146 822.124Z" fill="#FF9B94"/>
<path d="M31.9845 243.87C31.9845 246.816 34.3724 249.203 37.3179 249.203C40.2634 249.203 42.6512 246.816 42.6512 243.87C42.6512 240.924 40.2634 238.537 37.3179 238.537C34.3724 238.537 31.9845 240.924 31.9845 243.87ZM159.178 365.731H160.178V365.316L159.885 365.023L159.178 365.731ZM159.178 600.001L159.885 600.708L160.178 600.415V600.001H159.178ZM119.139 640.041L118.431 639.333L118.139 639.626V640.041H119.139ZM119.139 836.758H118.139V837.172L118.431 837.465L119.139 836.758ZM217 934.62L217.707 935.327L218.414 934.62L217.707 933.913L217 934.62ZM86.6977 1059.59C86.6977 1062.53 89.0855 1064.92 92.031 1064.92C94.9765 1064.92 97.3643 1062.53 97.3643 1059.59C97.3643 1056.64 94.9765 1054.26 92.031 1054.26C89.0855 1054.26 86.6977 1056.64 86.6977 1059.59ZM36.6108 244.577L158.471 366.438L159.885 365.023L38.025 243.163L36.6108 244.577ZM158.178 365.731V600.001H160.178V365.731H158.178ZM158.471 599.294L118.431 639.333L119.846 640.748L159.885 600.708L158.471 599.294ZM118.139 640.041V836.758H120.139V640.041H118.139ZM118.431 837.465L216.293 935.327L217.707 933.913L119.846 836.051L118.431 837.465ZM216.293 933.913L91.3239 1058.88L92.7381 1060.3L217.707 935.327L216.293 933.913Z" fill="#FF9B94"/>
<path d="M46.9066 134.444C46.9066 137.39 49.2944 139.778 52.2399 139.778C55.1854 139.778 57.5732 137.39 57.5732 134.444C57.5732 131.499 55.1854 129.111 52.2399 129.111C49.2944 129.111 46.9066 131.499 46.9066 134.444ZM52.2399 339.369L52.947 340.076L53.2399 339.783V339.369H52.2399ZM31.847 359.762L31.1399 359.055L30.847 359.347V359.762H31.847ZM31.847 582.095H30.847V582.509L31.1399 582.802L31.847 582.095ZM154.951 705.199H155.951V704.784L155.658 704.492L154.951 705.199ZM154.951 864.612L155.658 865.319L155.951 865.026V864.612H154.951ZM26.5137 987.716C26.5137 990.661 28.9015 993.049 31.847 993.049C34.7926 993.049 37.1804 990.661 37.1804 987.716C37.1804 984.77 34.7926 982.383 31.847 982.383C28.9015 982.383 26.5137 984.77 26.5137 987.716ZM51.2399 134.444V339.369H53.2399V134.444H51.2399ZM51.5328 338.662L31.1399 359.055L32.5542 360.469L52.947 340.076L51.5328 338.662ZM30.847 359.762V582.095H32.847V359.762H30.847ZM31.1399 582.802L154.244 705.906L155.658 704.492L32.5542 581.388L31.1399 582.802ZM153.951 705.199V864.612H155.951V705.199H153.951ZM154.244 863.905L31.1399 987.009L32.5542 988.423L155.658 865.319L154.244 863.905Z" fill="#FF9B94"/>
</svg>
