<svg width="20" height="20" viewBox="0 0 20 20" fill="none" xmlns="http://www.w3.org/2000/svg">
<g clip-path="url(#clip0_175_852)">
<path d="M10 20C15.5228 20 20 15.5228 20 10C20 4.47715 15.5228 0 10 0C4.47715 0 0 4.47715 0 10C0 15.5228 4.47715 20 10 20Z" fill="#F0F0F0"/>
<path d="M19.9998 9.99998C19.9998 6.03537 17.6926 2.60975 14.3477 0.992249V19.0077C17.6926 17.3902 19.9998 13.9646 19.9998 9.99998Z" fill="#DD1405"/>
<path d="M0 9.99998C0 13.9646 2.30723 17.3902 5.65219 19.0077V0.992249C2.30723 2.60975 0 6.03537 0 9.99998Z" fill="#DD1405"/>
<path d="M11.7389 11.3043L13.478 10.4347L12.6084 9.99996V9.13039L10.8693 9.99996L11.7389 8.26082H10.8693L9.99973 6.95648L9.13016 8.26082H8.26059L9.13016 9.99996L7.39102 9.13039V9.99996L6.52148 10.4347L8.26059 11.3043L7.82582 12.1739H9.56496V13.4782H10.4345V12.1739H12.1736L11.7389 11.3043Z" fill="#DD1405"/>
</g>
<defs>
<clipPath id="clip0_175_852">
<rect width="20" height="20" fill="white"/>
</clipPath>
</defs>
</svg>
