<svg width="20" height="20" viewBox="0 0 20 20" fill="none" xmlns="http://www.w3.org/2000/svg">
<g clip-path="url(#clip0_175_1276)">
<path d="M10 20C15.5228 20 20 15.5228 20 10C20 4.47715 15.5228 0 10 0C4.47715 0 0 4.47715 0 10C0 15.5228 4.47715 20 10 20Z" fill="#F0F0F0"/>
<path d="M20.0003 10C20.0003 5.70037 17.2865 2.03494 13.4785 0.622009V19.3781C17.2865 17.9651 20.0003 14.2997 20.0003 10Z" fill="#DD1405"/>
<path d="M0 10C0 14.2997 2.71379 17.9651 6.52176 19.378V0.622009C2.71379 2.03494 0 5.70037 0 10Z" fill="#0052B4"/>
</g>
<defs>
<clipPath id="clip0_175_1276">
<rect width="20" height="20" fill="white"/>
</clipPath>
</defs>
</svg>
