<svg width="20" height="20" viewBox="0 0 20 20" fill="none" xmlns="http://www.w3.org/2000/svg">
<g clip-path="url(#clip0_175_1056)">
<mask id="mask0_175_1056" style="mask-type:luminance" maskUnits="userSpaceOnUse" x="0" y="0" width="20" height="20">
<path d="M19.3726 10.0007C19.3726 12.4874 18.3848 14.8723 16.6264 16.6307C14.868 18.3891 12.4831 19.377 9.99637 19.377C7.50963 19.377 5.12475 18.3891 3.36636 16.6307C1.60797 14.8723 0.620117 12.4874 0.620117 10.0007C0.620117 7.51396 1.60797 5.12908 3.36636 3.37069C5.12475 1.6123 7.50963 0.624451 9.99637 0.624451C12.4831 0.624451 14.868 1.6123 16.6264 3.37069C18.3848 5.12908 19.3726 7.51396 19.3726 10.0007Z" fill="white"/>
</mask>
<g mask="url(#mask0_175_1056)">
<path d="M0.625 19.375L0.625 13.125H19.375V19.375H0.625Z" fill="#27AE60"/>
<path d="M0.625 13.125L0.625 6.875L19.375 6.875V13.125L0.625 13.125Z" fill="white"/>
<path d="M0.625 6.875L0.625 0.625001L19.375 0.625001V6.875L0.625 6.875Z" fill="#F39C12"/>
<path d="M9.99609 12.7359C11.5057 12.7359 12.7295 11.5121 12.7295 10.0025C12.7295 8.49289 11.5057 7.2691 9.99609 7.2691C8.48648 7.2691 7.2627 8.49289 7.2627 10.0025C7.2627 11.5121 8.48648 12.7359 9.99609 12.7359Z" fill="#000088"/>
<path d="M9.99622 12.3942C11.3171 12.3942 12.3879 11.3234 12.3879 10.0025C12.3879 8.68159 11.3171 7.61078 9.99622 7.61078C8.6753 7.61078 7.60449 8.68159 7.60449 10.0025C7.60449 11.3234 8.6753 12.3942 9.99622 12.3942Z" fill="white"/>
<path d="M9.99592 10.4808C10.2601 10.4808 10.4743 10.2666 10.4743 10.0025C10.4743 9.73827 10.2601 9.52411 9.99592 9.52411C9.73174 9.52411 9.51758 9.73827 9.51758 10.0025C9.51758 10.2666 9.73174 10.4808 9.99592 10.4808Z" fill="#000088"/>
<path d="M12.3509 10.4332C12.4164 10.4419 12.4765 10.3958 12.4851 10.3303C12.4938 10.2648 12.4477 10.2047 12.3822 10.1961C12.3168 10.1874 12.2567 10.2335 12.248 10.299C12.2393 10.3645 12.2854 10.4245 12.3509 10.4332Z" fill="#000088"/>
<path d="M9.99509 12.3941L10.0771 10.9591L9.99509 10.2758L9.91309 10.9591L9.99509 12.3941Z" fill="#000088"/>
<path d="M12.1594 11.0286C12.2204 11.054 12.2904 11.025 12.3157 10.964C12.341 10.903 12.3121 10.8331 12.2511 10.8077C12.1901 10.7824 12.1201 10.8114 12.0948 10.8724C12.0695 10.9334 12.0984 11.0033 12.1594 11.0286Z" fill="#000088"/>
<path d="M9.37626 12.3128L9.82714 10.9478L9.92492 10.2665L9.66872 10.9054L9.37626 12.3128Z" fill="#000088"/>
<path d="M11.8202 11.5533C11.8726 11.5935 11.9477 11.5837 11.9879 11.5313C12.0281 11.4789 12.0183 11.4039 11.9659 11.3636C11.9136 11.3234 11.8385 11.3332 11.7982 11.3856C11.758 11.438 11.7679 11.5131 11.8202 11.5533Z" fill="#000088"/>
<path d="M8.79991 12.0737L9.58844 10.872L9.8591 10.2392L9.44641 10.79L8.79991 12.0737Z" fill="#000088"/>
<path d="M11.3565 11.9731C11.3967 12.0255 11.4717 12.0355 11.5242 11.9953C11.5766 11.9551 11.5865 11.8801 11.5464 11.8276C11.5062 11.7752 11.4311 11.7653 11.3787 11.8055C11.3263 11.8456 11.3164 11.9207 11.3565 11.9731Z" fill="#000088"/>
<path d="M8.3038 11.6935L9.37677 10.7369L9.80212 10.1957L9.26081 10.6209L8.3038 11.6935Z" fill="#000088"/>
<path d="M10.8013 12.2578C10.8265 12.3188 10.8964 12.3478 10.9575 12.3226C11.0185 12.2973 11.0475 12.2274 11.0223 12.1664C10.997 12.1053 10.9271 12.0763 10.8661 12.1016C10.805 12.1268 10.776 12.1967 10.8013 12.2578Z" fill="#000088"/>
<path d="M7.92523 11.1983L9.20897 10.5518L9.75975 10.1391L9.12697 10.4098L7.92523 11.1983Z" fill="#000088"/>
<path d="M10.1905 12.3895C10.1991 12.455 10.2591 12.5011 10.3246 12.4925C10.3901 12.484 10.4362 12.4239 10.4276 12.3584C10.4191 12.293 10.359 12.2468 10.2935 12.2554C10.2281 12.264 10.1819 12.324 10.1905 12.3895Z" fill="#000088"/>
<path d="M7.68665 10.6212L9.09419 10.3292L9.73313 10.0732L9.05176 10.1707L7.68665 10.6212Z" fill="#000088"/>
<path d="M9.56559 12.358C9.55693 12.4234 9.60299 12.4835 9.66847 12.4922C9.73394 12.5008 9.79403 12.4548 9.80269 12.3893C9.81134 12.3238 9.76528 12.2637 9.69981 12.2551C9.63434 12.2464 9.57424 12.2925 9.56559 12.358Z" fill="#000088"/>
<path d="M7.60437 10.0025L9.03934 10.0845L9.72266 10.0025L9.03934 9.92047L7.60437 10.0025Z" fill="#000088"/>
<path d="M8.97057 12.1663C8.94526 12.2273 8.97419 12.2973 9.03518 12.3226C9.09618 12.3479 9.16615 12.319 9.19147 12.258C9.21678 12.197 9.18786 12.127 9.12686 12.1017C9.06586 12.0764 8.99589 12.1053 8.97057 12.1663Z" fill="#000088"/>
<path d="M7.6864 9.38299L9.05134 9.83386L9.73267 9.93163L9.09382 9.67544L7.6864 9.38299Z" fill="#000088"/>
<path d="M8.44644 11.8274C8.4062 11.8798 8.41605 11.9548 8.46843 11.9951C8.52082 12.0353 8.5959 12.0255 8.63613 11.9731C8.67637 11.9207 8.66652 11.8456 8.61414 11.8054C8.56175 11.7651 8.48667 11.775 8.44644 11.8274Z" fill="#000088"/>
<path d="M7.92498 8.80663L9.12691 9.59517L9.75978 9.86582L9.20891 9.45313L7.92498 8.80663Z" fill="#000088"/>
<path d="M8.02618 11.3637C7.97375 11.4038 7.96382 11.4789 8.004 11.5313C8.04417 11.5838 8.11925 11.5937 8.17167 11.5535C8.2241 11.5133 8.23403 11.4383 8.19386 11.3858C8.15368 11.3334 8.07861 11.3235 8.02618 11.3637Z" fill="#000088"/>
<path d="M8.30524 8.31076L9.26207 9.38379L9.80333 9.80915L9.37807 9.26781L8.30524 8.31076Z" fill="#000088"/>
<path d="M7.74142 10.8074C7.68038 10.8326 7.65137 10.9025 7.67662 10.9636C7.70187 11.0246 7.77181 11.0536 7.83285 11.0284C7.89388 11.0031 7.92289 10.9332 7.89765 10.8722C7.8724 10.8111 7.80245 10.7821 7.74142 10.8074Z" fill="#000088"/>
<path d="M8.8003 7.93108L9.4469 9.21492L9.85964 9.76574L9.58894 9.13291L8.8003 7.93108Z" fill="#000088"/>
<path d="M7.61012 10.1959C7.54463 10.2044 7.49849 10.2645 7.50707 10.33C7.51565 10.3955 7.57569 10.4416 7.64118 10.433C7.70667 10.4244 7.75281 10.3644 7.74423 10.2989C7.73565 10.2334 7.67561 10.1873 7.61012 10.1959Z" fill="#000088"/>
<path d="M9.37849 7.69179L9.67059 9.09945L9.92663 9.73844L9.82904 9.05701L9.37849 7.69179Z" fill="#000088"/>
<path d="M7.64128 9.57185C7.5758 9.5632 7.5157 9.60927 7.50705 9.67475C7.4984 9.74023 7.54447 9.80033 7.60995 9.80898C7.67543 9.81763 7.73553 9.77156 7.74418 9.70608C7.75283 9.6406 7.70676 9.5805 7.64128 9.57185Z" fill="#000088"/>
<path d="M9.99695 7.61054L9.91504 9.04568L9.99709 9.72907L10.0791 9.04567L9.99695 7.61054Z" fill="#000088"/>
<path d="M7.83277 8.97634C7.77176 8.95103 7.70179 8.97996 7.67647 9.04097C7.65116 9.10198 7.68009 9.17195 7.7411 9.19727C7.80211 9.22258 7.87208 9.19365 7.8974 9.13264C7.92271 9.07163 7.89378 9.00166 7.83277 8.97634Z" fill="#000088"/>
<path d="M10.6158 7.69187L10.165 9.057L10.0673 9.73841L10.3234 9.09947L10.6158 7.69187Z" fill="#000088"/>
<path d="M8.17097 8.45164C8.11859 8.4114 8.04351 8.42125 8.00328 8.47363C7.96304 8.52601 7.97289 8.60109 8.02527 8.64132C8.07765 8.68156 8.15273 8.67171 8.19297 8.61933C8.2332 8.56695 8.22335 8.49187 8.17097 8.45164Z" fill="#000088"/>
<path d="M11.1922 7.93098L10.4037 9.13286L10.1331 9.7657L10.5458 9.21486L11.1922 7.93098Z" fill="#000088"/>
<path d="M8.63566 8.03174C8.59549 7.97932 8.52042 7.96939 8.46799 8.00956C8.41557 8.04974 8.40564 8.12481 8.44581 8.17723C8.48599 8.22966 8.56105 8.23959 8.61348 8.19941C8.6659 8.15924 8.67584 8.08417 8.63566 8.03174Z" fill="#000088"/>
<path d="M11.6884 8.31116L10.6154 9.26795L10.1901 9.80919L10.7314 9.38395L11.6884 8.31116Z" fill="#000088"/>
<path d="M9.19096 7.7468C9.16572 7.68576 9.09578 7.65675 9.03474 7.68199C8.9737 7.70723 8.94468 7.77717 8.96992 7.83821C8.99516 7.89925 9.06511 7.92827 9.12615 7.90303C9.18718 7.87779 9.2162 7.80784 9.19096 7.7468Z" fill="#000088"/>
<path d="M12.0672 8.80661L10.7833 9.4531L10.2324 9.8658L10.8653 9.59515L12.0672 8.80661Z" fill="#000088"/>
<path d="M9.80173 7.61514C9.79315 7.54965 9.73311 7.5035 9.66762 7.51208C9.60212 7.52065 9.55598 7.58069 9.56455 7.64618C9.57313 7.71168 9.63317 7.75782 9.69866 7.74925C9.76416 7.74067 9.8103 7.68063 9.80173 7.61514Z" fill="#000088"/>
<path d="M12.3058 9.38379L10.8981 9.67577L10.2591 9.93176L10.9405 9.83422L12.3058 9.38379Z" fill="#000088"/>
<path d="M10.4266 7.64675C10.4353 7.58127 10.3892 7.52116 10.3238 7.5125C10.2583 7.50384 10.1982 7.54991 10.1895 7.61539C10.1808 7.68087 10.2269 7.74097 10.2924 7.74963C10.3579 7.75829 10.418 7.71223 10.4266 7.64675Z" fill="#000088"/>
<path d="M12.3881 10.0026L10.9529 9.9205L10.2695 10.0025L10.9529 10.0845L12.3881 10.0026Z" fill="#000088"/>
<path d="M11.0226 7.83848C11.0479 7.77748 11.019 7.7075 10.958 7.68218C10.897 7.65685 10.827 7.68578 10.8017 7.74678C10.7764 7.80779 10.8053 7.87777 10.8663 7.90309C10.9273 7.92841 10.9973 7.89949 11.0226 7.83848Z" fill="#000088"/>
<path d="M12.306 10.6221L10.9409 10.1711L10.2595 10.0733L10.8984 10.3296L12.306 10.6221Z" fill="#000088"/>
<path d="M11.5467 8.17783C11.587 8.12545 11.5771 8.05037 11.5247 8.01013C11.4724 7.96989 11.3973 7.97974 11.357 8.03211C11.3168 8.08449 11.3266 8.15957 11.379 8.19981C11.4314 8.24005 11.5065 8.23021 11.5467 8.17783Z" fill="#000088"/>
<path d="M12.0671 11.1985L10.8652 10.4099L10.2324 10.1392L10.7832 10.5519L12.0671 11.1985Z" fill="#000088"/>
<path d="M11.967 8.64155C12.0194 8.60137 12.0293 8.52631 11.9892 8.47388C11.949 8.42145 11.8739 8.41151 11.8215 8.45168C11.7691 8.49185 11.7591 8.56692 11.7993 8.61935C11.8395 8.67178 11.9145 8.68172 11.967 8.64155Z" fill="#000088"/>
<path d="M11.6868 11.6943L10.7301 10.6212L10.1889 10.1958L10.6141 10.7372L11.6868 11.6943Z" fill="#000088"/>
<path d="M12.2517 9.19791C12.3128 9.17267 12.3418 9.10273 12.3165 9.0417C12.2913 8.98066 12.2214 8.95164 12.1603 8.97688C12.0993 9.00212 12.0703 9.07206 12.0955 9.1331C12.1207 9.19413 12.1907 9.22315 12.2517 9.19791Z" fill="#000088"/>
<path d="M11.1917 12.074L10.5452 10.7901L10.1325 10.2393L10.4032 10.8721L11.1917 12.074Z" fill="#000088"/>
<path d="M12.382 9.80935C12.4475 9.80077 12.4937 9.74073 12.4851 9.67524C12.4765 9.60975 12.4165 9.56361 12.351 9.57219C12.2855 9.58076 12.2394 9.6408 12.2479 9.70629C12.2565 9.77178 12.3166 9.81792 12.382 9.80935Z" fill="#000088"/>
<path d="M10.6135 12.3132L10.3215 10.9056L10.0656 10.2666L10.1631 10.948L10.6135 12.3132Z" fill="#000088"/>
</g>
</g>
<defs>
<clipPath id="clip0_175_1056">
<rect width="20" height="20" fill="white"/>
</clipPath>
</defs>
</svg>
