<svg width="20" height="20" viewBox="0 0 20 20" fill="none" xmlns="http://www.w3.org/2000/svg">
<g clip-path="url(#clip0_175_1371)">
<path d="M10 20C15.5228 20 20 15.5228 20 10C20 4.47715 15.5228 0 10 0C4.47715 0 0 4.47715 0 10C0 15.5228 4.47715 20 10 20Z" fill="#F0F0F0"/>
<path d="M2.06742 3.91174C1.28191 4.93374 0.689609 6.11167 0.344727 7.39131H5.54699L2.06742 3.91174Z" fill="#0052B4"/>
<path d="M19.6553 7.3914C19.3104 6.11179 18.7181 4.93386 17.9326 3.91187L14.4531 7.3914H19.6553Z" fill="#0052B4"/>
<path d="M0.344727 12.6088C0.689648 13.8884 1.28195 15.0663 2.06742 16.0883L5.54688 12.6088H0.344727Z" fill="#0052B4"/>
<path d="M16.0889 2.06722C15.0669 1.28171 13.889 0.689404 12.6094 0.344482V5.54671L16.0889 2.06722Z" fill="#0052B4"/>
<path d="M3.91211 17.9328C4.9341 18.7183 6.11203 19.3106 7.39164 19.6556V14.4534L3.91211 17.9328Z" fill="#0052B4"/>
<path d="M7.3916 0.344482C6.11199 0.689404 4.93406 1.28171 3.91211 2.06718L7.3916 5.54667V0.344482Z" fill="#0052B4"/>
<path d="M12.6094 19.6556C13.889 19.3106 15.0669 18.7183 16.0889 17.9329L12.6094 14.4534V19.6556Z" fill="#0052B4"/>
<path d="M14.4531 12.6088L17.9326 16.0883C18.7181 15.0663 19.3104 13.8884 19.6553 12.6088H14.4531Z" fill="#0052B4"/>
<path d="M19.9154 8.69566H11.3044H11.3044V0.0846484C10.8774 0.0290625 10.4421 0 10 0C9.55785 0 9.12262 0.0290625 8.69566 0.0846484V8.69559V8.69563H0.0846484C0.0290625 9.12262 0 9.55793 0 10C0 10.4421 0.0290625 10.8774 0.0846484 11.3043H8.69559H8.69563V19.9154C9.12262 19.9709 9.55785 20 10 20C10.4421 20 10.8774 19.971 11.3043 19.9154V11.3044V11.3044H19.9154C19.9709 10.8774 20 10.4421 20 10C20 9.55793 19.9709 9.12262 19.9154 8.69566Z" fill="#DD1405"/>
<path d="M12.6084 12.6088L17.0707 17.0711C17.276 16.866 17.4718 16.6515 17.6586 16.4292L13.8382 12.6088H12.6084V12.6088Z" fill="#DD1405"/>
<path d="M7.39109 12.6088H7.39102L2.92871 17.0711C3.13387 17.2763 3.34836 17.4721 3.5707 17.6589L7.39109 13.8384V12.6088Z" fill="#DD1405"/>
<path d="M7.39098 7.39142V7.39134L2.92863 2.92896C2.7234 3.13411 2.52762 3.3486 2.34082 3.57095L6.16125 7.39138L7.39098 7.39142Z" fill="#DD1405"/>
<path d="M12.6084 7.39138L17.0708 2.92896C16.8656 2.72373 16.6511 2.52794 16.4288 2.34119L12.6084 6.16162V7.39138Z" fill="#DD1405"/>
</g>
<defs>
<clipPath id="clip0_175_1371">
<rect width="20" height="20" fill="white"/>
</clipPath>
</defs>
</svg>
